<svg xmlns="http://www.w3.org/2000/svg" viewBox="0 0 32 32" width="32" height="32">
  <!-- Folder Back Fill and Border -->
  <path d="M4,10 C4,8 5,7 7,7 H13 L16,10 H27 C29,10 30,11 30,13 V26 C30,28 29,29 27,29 H5 C3,29 2,28 2,26 Z" fill="#8c5d3f" stroke="#50311f" stroke-width="2" stroke-linejoin="round" />

  <!-- Paper Sheets inside -->
  <rect x="7" y="5" width="16" height="15" rx="1.5" fill="#fbf8f3" stroke="#50311f" stroke-width="1.5" transform="rotate(-3 15 12)" />
  <rect x="9" y="4" width="14" height="15" rx="1.5" fill="#fbf8f3" stroke="#50311f" stroke-width="1.5" />

  <!-- Folder Front Fill and Border -->
  <path d="M2,13 C2,11 3,10 5,10 H27 C29,10 30,11 30,13 V26 C30,28 29,29 27,29 H5 C3,29 2,28 2,26 Z" fill="#c69b7b" stroke="#50311f" stroke-width="2" stroke-linejoin="round" />
  
  <!-- Subtle design lines on the front folder -->
  <line x1="6" y1="15" x2="26" y2="15" stroke="#8c5d3f" stroke-width="1.5" stroke-linecap="round" />
  <line x1="6" y1="19" x2="20" y2="19" stroke="#8c5d3f" stroke-width="1.5" stroke-linecap="round" />
</svg>
